<svg width="400" height="240" viewBox="0 0 400 240" fill="none" xmlns="http://www.w3.org/2000/svg">
<path d="M92.3594 173.359C91.776 173.328 91.2083 173.286 90.6562 173.234C90.1146 173.172 89.6198 173.089 89.1719 172.984C88.724 172.88 88.3438 172.745 88.0312 172.578C87.7292 172.401 87.5312 172.182 87.4375 171.922L78.7969 150.578C78.6198 150.589 78.4479 150.661 78.2812 150.797C78.2083 152.089 77.8125 153.125 77.0938 153.906L77.4531 154.828L70.8594 171.406C70.4427 172.448 69.1615 173.099 67.0156 173.359C66.9531 173.505 66.9219 173.635 66.9219 173.75C66.9219 173.875 66.9531 174 67.0156 174.125C68.2031 174.083 69.1562 174.052 69.875 174.031C70.6042 174.01 71.1042 174 71.375 174C71.6146 174 72.1562 174.01 73 174.031C73.8542 174.052 75.0104 174.083 76.4688 174.125C76.5312 174 76.5625 173.875 76.5625 173.75C76.5625 173.635 76.5312 173.505 76.4688 173.359C75.6042 173.276 74.901 173.188 74.3594 173.094C73.8177 172.99 73.3958 172.88 73.0938 172.766C72.7917 172.651 72.5885 172.526 72.4844 172.391C72.3802 172.245 72.3281 172.083 72.3281 171.906C72.3281 171.792 72.349 171.677 72.3906 171.562L74.6719 165.844C75.8281 165.823 76.7604 165.807 77.4688 165.797C78.1875 165.786 78.6823 165.781 78.9531 165.781C79.5469 165.781 80.0729 165.786 80.5312 165.797C81 165.797 81.401 165.802 81.7344 165.812L84 171.562C84.0521 171.719 84.0781 171.839 84.0781 171.922C84.0781 172.203 83.9323 172.453 83.6406 172.672C83.3594 172.891 83.0104 173.042 82.5938 173.125L80.9062 173.359C80.8438 173.505 80.8125 173.635 80.8125 173.75C80.8125 173.875 80.8438 174 80.9062 174.125C81.7917 174.094 82.6875 174.068 83.5938 174.047C84.5104 174.026 85.4479 174.016 86.4062 174.016C87.3646 174.016 88.3333 174.026 89.3125 174.047C90.3021 174.068 91.3177 174.094 92.3594 174.125C92.4323 173.979 92.4688 173.854 92.4688 173.75C92.4688 173.688 92.4583 173.625 92.4375 173.562C92.4167 173.5 92.3906 173.432 92.3594 173.359ZM78.9531 164.562C77.4427 164.562 76.1979 164.542 75.2188 164.5L78.1875 156.844H78.25L81.2344 164.531C80.6719 164.552 79.9115 164.562 78.9531 164.562ZM78.2188 158.484L76.1406 163.891C77.401 163.953 78.7865 163.964 80.2969 163.922L78.2188 158.484ZM92.8438 172.781C93.1042 173.406 93.0938 174.068 92.8125 174.766H80.4219C80.1719 174.047 80.1719 173.385 80.4219 172.781C81.5573 172.719 82.3594 172.604 82.8281 172.438C83.2969 172.26 83.4583 171.979 83.3125 171.594L81.2656 166.422C79.3385 166.349 77.276 166.37 75.0781 166.484L73.0625 171.656C73 171.833 73.0469 171.995 73.2031 172.141C73.3698 172.276 73.6354 172.385 74 172.469C74.3646 172.552 74.7917 172.62 75.2812 172.672C75.7708 172.724 76.3229 172.76 76.9375 172.781C77.1979 173.406 77.1875 174.068 76.9062 174.766C73.4896 174.641 70.0469 174.641 66.5781 174.766C66.2969 174.068 66.2865 173.406 66.5469 172.781C68.6927 172.531 69.9062 172.062 70.1875 171.375L76.7812 154.797C76.7396 154.714 76.6562 154.526 76.5312 154.234C76.4167 153.932 76.349 153.734 76.3281 153.641C77.1406 152.818 77.5885 151.755 77.6719 150.453C78.5885 150.005 79.6667 149.75 80.9062 149.688L89.6719 171.438C89.8698 171.927 90.1823 172.255 90.6094 172.422C91.0365 172.578 91.7812 172.698 92.8438 172.781ZM101.531 162C101.531 159.438 101.583 156.526 101.688 153.266C101.708 152.474 103.448 151.974 106.906 151.766C106.969 151.568 106.969 151.323 106.906 151.031C104.177 151.115 102.047 151.156 100.516 151.156C99.2344 151.156 97.4167 151.115 95.0625 151.031C94.9792 151.219 94.9792 151.464 95.0625 151.766C97.4583 151.995 98.6667 152.495 98.6875 153.266C98.7917 155.714 98.8438 158.625 98.8438 162C98.8438 165.302 98.7812 168.589 98.6562 171.859C98.6354 172.63 97.4271 173.13 95.0312 173.359C94.9688 173.62 94.9688 173.865 95.0312 174.094C97.0417 174.031 101.714 174 109.047 174C111.547 174 113.422 173.531 114.672 172.594C115.922 171.656 117.089 170.078 118.172 167.859C118.089 167.682 117.906 167.542 117.625 167.438C117.219 168.188 116.771 168.854 116.281 169.438C115.792 170.021 115.146 170.609 114.344 171.203C113.542 171.786 112.542 172.24 111.344 172.562C110.156 172.885 108.807 173.047 107.297 173.047H101.656C101.573 169.391 101.531 165.708 101.531 162ZM103.906 163.156C103.906 166.01 103.948 169.094 104.031 172.406H107.266C111.891 172.406 115.25 170.484 117.344 166.641C118.219 166.964 118.771 167.37 119 167.859C117.51 170.328 116.635 172.589 116.375 174.641H103.766C99.651 174.641 96.5938 174.672 94.5938 174.734C94.375 174.057 94.3646 173.396 94.5625 172.75C96.8438 172.521 97.9948 172.214 98.0156 171.828C98.1406 168.557 98.2031 165.281 98.2031 162C98.2031 158.646 98.151 155.745 98.0469 153.297C98.026 152.911 96.8646 152.604 94.5625 152.375C94.3854 151.688 94.4062 151.016 94.625 150.359C96.4375 150.464 98.7708 150.516 101.625 150.516C102.052 150.516 102.906 150.505 104.188 150.484C105.469 150.464 106.589 150.453 107.547 150.453C107.745 151.047 107.755 151.688 107.578 152.375C105.276 152.604 104.115 152.911 104.094 153.297C103.969 155.901 103.906 159.188 103.906 163.156ZM121.406 158.188C120.615 157.875 120.094 157.469 119.844 156.969C120.438 155.844 120.833 155.089 121.031 154.703C121.24 154.318 121.474 153.729 121.734 152.938C122.005 152.135 122.193 151.328 122.297 150.516H133.125H146.141C146.401 152.557 147.214 154.708 148.578 156.969C148.339 157.469 147.781 157.875 146.906 158.188C146.052 156.635 144.792 155.344 143.125 154.312C141.469 153.271 139.318 152.75 136.672 152.75C136.589 155.333 136.547 158.396 136.547 161.938C136.547 166.458 136.599 169.755 136.703 171.828C136.724 172.214 137.885 172.521 140.188 172.75C140.365 173.417 140.344 174.089 140.125 174.766C136.75 174.682 134.786 174.641 134.234 174.641C133.401 174.641 131.068 174.682 127.234 174.766C126.974 174.047 126.974 173.375 127.234 172.75C129.495 172.521 130.635 172.224 130.656 171.859C130.76 169.234 130.812 165.927 130.812 161.938C130.812 158.604 130.771 155.573 130.688 152.844C126.354 153.406 123.26 155.188 121.406 158.188ZM125.828 152.203L131.297 152.047C131.401 155.505 131.453 158.802 131.453 161.938C131.453 165.969 131.401 169.276 131.297 171.859C131.276 172.63 130.068 173.13 127.672 173.359C127.589 173.526 127.589 173.771 127.672 174.094C129.443 174.031 131.26 174 133.125 174C135.344 174 137.474 174.031 139.516 174.094C139.599 173.906 139.599 173.661 139.516 173.359C136.057 173.151 134.318 172.651 134.297 171.859C134.193 168.401 134.141 165.094 134.141 161.938C134.141 157.927 134.193 154.63 134.297 152.047L136.703 152.109C141.891 152.234 145.391 153.995 147.203 157.391C147.474 157.286 147.651 157.146 147.734 156.969C146.693 154.844 145.526 153.344 144.234 152.469C142.943 151.594 141.021 151.156 138.469 151.156H133.125C131.99 151.156 130.276 151.151 127.984 151.141C125.693 151.13 123.99 151.125 122.875 151.125C122.833 151.479 122.76 151.849 122.656 152.234C122.552 152.62 122.453 152.948 122.359 153.219C122.276 153.479 122.13 153.828 121.922 154.266C121.724 154.703 121.589 155 121.516 155.156C121.443 155.302 121.276 155.625 121.016 156.125C120.766 156.625 120.62 156.906 120.578 156.969C120.661 157.146 120.844 157.286 121.125 157.391C121.865 156.172 122.438 155.271 122.844 154.688C123.25 154.104 123.729 153.547 124.281 153.016C124.844 152.474 125.359 152.203 125.828 152.203ZM173.578 173.359C172.995 173.328 172.427 173.286 171.875 173.234C171.333 173.172 170.839 173.089 170.391 172.984C169.943 172.88 169.562 172.745 169.25 172.578C168.948 172.401 168.75 172.182 168.656 171.922L160.016 150.578C159.839 150.589 159.667 150.661 159.5 150.797C159.427 152.089 159.031 153.125 158.312 153.906L158.672 154.828L152.078 171.406C151.661 172.448 150.38 173.099 148.234 173.359C148.172 173.505 148.141 173.635 148.141 173.75C148.141 173.875 148.172 174 148.234 174.125C149.422 174.083 150.375 174.052 151.094 174.031C151.823 174.01 152.323 174 152.594 174C152.833 174 153.375 174.01 154.219 174.031C155.073 174.052 156.229 174.083 157.688 174.125C157.75 174 157.781 173.875 157.781 173.75C157.781 173.635 157.75 173.505 157.688 173.359C156.823 173.276 156.12 173.188 155.578 173.094C155.036 172.99 154.615 172.88 154.312 172.766C154.01 172.651 153.807 172.526 153.703 172.391C153.599 172.245 153.547 172.083 153.547 171.906C153.547 171.792 153.568 171.677 153.609 171.562L155.891 165.844C157.047 165.823 157.979 165.807 158.688 165.797C159.406 165.786 159.901 165.781 160.172 165.781C160.766 165.781 161.292 165.786 161.75 165.797C162.219 165.797 162.62 165.802 162.953 165.812L165.219 171.562C165.271 171.719 165.297 171.839 165.297 171.922C165.297 172.203 165.151 172.453 164.859 172.672C164.578 172.891 164.229 173.042 163.812 173.125L162.125 173.359C162.062 173.505 162.031 173.635 162.031 173.75C162.031 173.875 162.062 174 162.125 174.125C163.01 174.094 163.906 174.068 164.812 174.047C165.729 174.026 166.667 174.016 167.625 174.016C168.583 174.016 169.552 174.026 170.531 174.047C171.521 174.068 172.536 174.094 173.578 174.125C173.651 173.979 173.688 173.854 173.688 173.75C173.688 173.688 173.677 173.625 173.656 173.562C173.635 173.5 173.609 173.432 173.578 173.359ZM160.172 164.562C158.661 164.562 157.417 164.542 156.438 164.5L159.406 156.844H159.469L162.453 164.531C161.891 164.552 161.13 164.562 160.172 164.562ZM159.438 158.484L157.359 163.891C158.62 163.953 160.005 163.964 161.516 163.922L159.438 158.484ZM174.062 172.781C174.323 173.406 174.312 174.068 174.031 174.766H161.641C161.391 174.047 161.391 173.385 161.641 172.781C162.776 172.719 163.578 172.604 164.047 172.438C164.516 172.26 164.677 171.979 164.531 171.594L162.484 166.422C160.557 166.349 158.495 166.37 156.297 166.484L154.281 171.656C154.219 171.833 154.266 171.995 154.422 172.141C154.589 172.276 154.854 172.385 155.219 172.469C155.583 172.552 156.01 172.62 156.5 172.672C156.99 172.724 157.542 172.76 158.156 172.781C158.417 173.406 158.406 174.068 158.125 174.766C154.708 174.641 151.266 174.641 147.797 174.766C147.516 174.068 147.505 173.406 147.766 172.781C149.911 172.531 151.125 172.062 151.406 171.375L158 154.797C157.958 154.714 157.875 154.526 157.75 154.234C157.635 153.932 157.568 153.734 157.547 153.641C158.359 152.818 158.807 151.755 158.891 150.453C159.807 150.005 160.885 149.75 162.125 149.688L170.891 171.438C171.089 171.927 171.401 172.255 171.828 172.422C172.255 172.578 173 172.698 174.062 172.781ZM197.562 150.516C196.562 150.516 195.547 150.625 194.516 150.844C193.495 151.052 192.422 151.443 191.297 152.016C190.182 152.589 189.198 153.312 188.344 154.188C187.49 155.062 186.786 156.229 186.234 157.688C185.682 159.135 185.406 160.776 185.406 162.609C185.406 164.443 185.682 166.089 186.234 167.547C186.786 168.995 187.49 170.151 188.344 171.016C189.198 171.87 190.182 172.583 191.297 173.156C192.422 173.719 193.495 174.104 194.516 174.312C195.547 174.531 196.562 174.641 197.562 174.641C199.135 174.641 200.547 174.49 201.797 174.188C203.047 173.896 204.464 173.438 206.047 172.812C205.578 171.531 205.344 169.911 205.344 167.953V165.641C205.344 164.88 207.078 164.38 210.547 164.141C210.661 163.891 210.661 163.646 210.547 163.406C207.818 163.49 205.688 163.531 204.156 163.531C202.875 163.531 201.062 163.49 198.719 163.406C198.646 163.646 198.646 163.891 198.719 164.141C201.125 164.38 202.328 164.88 202.328 165.641V171.984C201.432 173.005 199.844 173.516 197.562 173.516C196.344 173.516 195.234 173.292 194.234 172.844C193.234 172.396 192.406 171.807 191.75 171.078C191.104 170.339 190.562 169.484 190.125 168.516C189.688 167.547 189.37 166.573 189.172 165.594C188.984 164.604 188.891 163.609 188.891 162.609C188.891 161.328 189.047 160.078 189.359 158.859C189.682 157.63 190.167 156.464 190.812 155.359C191.469 154.245 192.375 153.344 193.531 152.656C194.698 151.969 196.042 151.625 197.562 151.625C198.583 151.625 199.531 151.786 200.406 152.109C201.281 152.432 202 152.812 202.562 153.25C203.135 153.688 203.688 154.276 204.219 155.016C204.75 155.745 205.151 156.38 205.422 156.922C205.703 157.453 206.036 158.13 206.422 158.953C206.745 158.911 206.938 158.797 207 158.609C206.229 155.516 205.062 153.396 203.5 152.25C201.948 151.094 199.969 150.516 197.562 150.516ZM206.047 159.656C205.599 158.656 205.188 157.833 204.812 157.188C204.438 156.531 203.932 155.802 203.297 155C202.672 154.188 201.927 153.557 201.062 153.109C200.198 152.661 199.234 152.391 198.172 152.297C196.953 152.37 195.88 152.74 194.953 153.406C194.026 154.062 193.307 154.906 192.797 155.938C192.286 156.969 191.906 158.047 191.656 159.172C191.406 160.286 191.281 161.432 191.281 162.609C191.281 164.234 191.5 165.786 191.938 167.266C192.375 168.745 193.141 170.052 194.234 171.188C195.339 172.312 196.693 172.875 198.297 172.875C199.786 172.875 200.917 172.495 201.688 171.734V165.641C201.688 165.286 200.526 164.99 198.203 164.75C197.922 164.021 197.943 163.349 198.266 162.734C201.38 162.88 205.688 162.911 211.188 162.828C211.427 163.453 211.438 164.094 211.219 164.75C208.896 164.99 207.734 165.286 207.734 165.641V167.953C207.734 169.849 208.031 171.599 208.625 173.203C207.156 173.755 206.062 174.135 205.344 174.344C204.635 174.562 203.604 174.771 202.25 174.969C200.896 175.177 199.333 175.281 197.562 175.281C196.49 175.281 195.417 175.167 194.344 174.938C193.271 174.719 192.146 174.312 190.969 173.719C189.792 173.115 188.755 172.359 187.859 171.453C186.964 170.547 186.224 169.333 185.641 167.812C185.057 166.281 184.766 164.547 184.766 162.609C184.766 160.672 185.052 158.943 185.625 157.422C186.198 155.891 186.927 154.667 187.812 153.75C188.698 152.833 189.719 152.073 190.875 151.469C192.042 150.854 193.156 150.438 194.219 150.219C195.292 149.99 196.365 149.875 197.438 149.875C199.167 149.875 201.083 150.094 203.188 150.531C205.302 150.969 206.646 151.219 207.219 151.281C206.885 152.625 206.755 153.807 206.828 154.828C206.901 155.839 207.193 157.078 207.703 158.547C207.401 159.161 206.849 159.531 206.047 159.656ZM220.062 152.109H220.094C220.74 152.068 221.573 152.047 222.594 152.047C224.177 152.047 225.385 152.536 226.219 153.516C227.062 154.495 227.484 155.766 227.484 157.328C227.484 158.911 227.099 160.286 226.328 161.453C225.568 162.609 224.375 163.188 222.75 163.188C221.792 163.188 220.844 163.068 219.906 162.828C219.906 159.161 219.958 155.589 220.062 152.109ZM226.844 157.328C226.844 155.984 226.438 154.854 225.625 153.938C224.823 153.021 223.76 152.615 222.438 152.719C222.354 156.729 222.312 159.943 222.312 162.359C222.521 162.422 222.839 162.474 223.266 162.516C224.484 162.38 225.385 161.807 225.969 160.797C226.552 159.786 226.844 158.63 226.844 157.328ZM217.062 171.859C217.042 172.63 215.833 173.13 213.438 173.359C213.354 173.526 213.354 173.771 213.438 174.094C215.208 174.031 217.026 174 218.891 174C221.109 174 223.24 174.031 225.281 174.094C225.365 173.927 225.365 173.682 225.281 173.359C221.823 173.151 220.083 172.651 220.062 171.859C219.958 168.932 219.906 166.318 219.906 164.016C221.083 164.255 222.172 164.375 223.172 164.375C224.88 167.552 227.13 170.76 229.922 174C230.453 174 231.219 174.005 232.219 174.016C233.229 174.026 234.135 174.036 234.938 174.047C235.75 174.057 236.521 174.073 237.25 174.094C237.333 173.906 237.333 173.661 237.25 173.359C235.542 173.234 234.099 172.818 232.922 172.109C231.755 171.391 230.391 170.068 228.828 168.141C227.766 166.797 226.807 165.38 225.953 163.891C227.495 163.38 228.708 162.531 229.594 161.344C230.479 160.156 230.922 158.818 230.922 157.328C230.922 155.453 230.318 153.938 229.109 152.781C227.901 151.615 226.229 151.031 224.094 151.031C217.052 151.115 213.51 151.115 213.469 151.031C213.406 151.281 213.406 151.526 213.469 151.766C215.865 151.995 217.073 152.495 217.094 153.266C217.198 155.714 217.25 158.625 217.25 162C217.25 165.302 217.188 168.589 217.062 171.859ZM216.422 171.828C216.547 169.224 216.609 165.948 216.609 162C216.609 158.646 216.557 155.745 216.453 153.297C216.432 152.911 215.271 152.604 212.969 152.375C212.792 151.688 212.812 151.016 213.031 150.359C214.177 150.422 215.422 150.453 216.766 150.453C218.109 150.453 219.651 150.443 221.391 150.422C223.13 150.401 224.406 150.391 225.219 150.391C227.74 150.391 229.719 151.031 231.156 152.312C232.594 153.583 233.312 155.255 233.312 157.328C233.312 158.797 232.891 160.151 232.047 161.391C231.203 162.63 230.068 163.568 228.641 164.203C229.349 165.359 230.172 166.547 231.109 167.766C232.214 169.234 233.297 170.401 234.359 171.266C235.432 172.13 236.62 172.625 237.922 172.75C238.089 173.417 238.068 174.089 237.859 174.766C236.37 174.724 233.63 174.682 229.641 174.641C226.714 171.224 224.427 168.016 222.781 165.016H222.312C222.312 166.953 222.365 169.224 222.469 171.828C222.469 171.891 222.495 171.953 222.547 172.016C222.599 172.078 222.802 172.177 223.156 172.312C223.51 172.448 224.047 172.568 224.766 172.672C225.495 172.766 225.901 172.823 225.984 172.844C226.161 173.427 226.13 174.068 225.891 174.766C222.047 174.682 219.714 174.641 218.891 174.641C218.328 174.641 216.365 174.682 213 174.766C212.74 174.047 212.74 173.375 213 172.75C215.26 172.521 216.401 172.214 216.422 171.828ZM264.109 173.359C263.526 173.328 262.958 173.286 262.406 173.234C261.865 173.172 261.37 173.089 260.922 172.984C260.474 172.88 260.094 172.745 259.781 172.578C259.479 172.401 259.281 172.182 259.188 171.922L250.547 150.578C250.37 150.589 250.198 150.661 250.031 150.797C249.958 152.089 249.562 153.125 248.844 153.906L249.203 154.828L242.609 171.406C242.193 172.448 240.911 173.099 238.766 173.359C238.703 173.505 238.672 173.635 238.672 173.75C238.672 173.875 238.703 174 238.766 174.125C239.953 174.083 240.906 174.052 241.625 174.031C242.354 174.01 242.854 174 243.125 174C243.365 174 243.906 174.01 244.75 174.031C245.604 174.052 246.76 174.083 248.219 174.125C248.281 174 248.312 173.875 248.312 173.75C248.312 173.635 248.281 173.505 248.219 173.359C247.354 173.276 246.651 173.188 246.109 173.094C245.568 172.99 245.146 172.88 244.844 172.766C244.542 172.651 244.339 172.526 244.234 172.391C244.13 172.245 244.078 172.083 244.078 171.906C244.078 171.792 244.099 171.677 244.141 171.562L246.422 165.844C247.578 165.823 248.51 165.807 249.219 165.797C249.938 165.786 250.432 165.781 250.703 165.781C251.297 165.781 251.823 165.786 252.281 165.797C252.75 165.797 253.151 165.802 253.484 165.812L255.75 171.562C255.802 171.719 255.828 171.839 255.828 171.922C255.828 172.203 255.682 172.453 255.391 172.672C255.109 172.891 254.76 173.042 254.344 173.125L252.656 173.359C252.594 173.505 252.562 173.635 252.562 173.75C252.562 173.875 252.594 174 252.656 174.125C253.542 174.094 254.438 174.068 255.344 174.047C256.26 174.026 257.198 174.016 258.156 174.016C259.115 174.016 260.083 174.026 261.062 174.047C262.052 174.068 263.068 174.094 264.109 174.125C264.182 173.979 264.219 173.854 264.219 173.75C264.219 173.688 264.208 173.625 264.188 173.562C264.167 173.5 264.141 173.432 264.109 173.359ZM250.703 164.562C249.193 164.562 247.948 164.542 246.969 164.5L249.938 156.844H250L252.984 164.531C252.422 164.552 251.661 164.562 250.703 164.562ZM249.969 158.484L247.891 163.891C249.151 163.953 250.536 163.964 252.047 163.922L249.969 158.484ZM264.594 172.781C264.854 173.406 264.844 174.068 264.562 174.766H252.172C251.922 174.047 251.922 173.385 252.172 172.781C253.307 172.719 254.109 172.604 254.578 172.438C255.047 172.26 255.208 171.979 255.062 171.594L253.016 166.422C251.089 166.349 249.026 166.37 246.828 166.484L244.812 171.656C244.75 171.833 244.797 171.995 244.953 172.141C245.12 172.276 245.385 172.385 245.75 172.469C246.115 172.552 246.542 172.62 247.031 172.672C247.521 172.724 248.073 172.76 248.688 172.781C248.948 173.406 248.938 174.068 248.656 174.766C245.24 174.641 241.797 174.641 238.328 174.766C238.047 174.068 238.036 173.406 238.297 172.781C240.443 172.531 241.656 172.062 241.938 171.375L248.531 154.797C248.49 154.714 248.406 154.526 248.281 154.234C248.167 153.932 248.099 153.734 248.078 153.641C248.891 152.818 249.339 151.755 249.422 150.453C250.339 150.005 251.417 149.75 252.656 149.688L261.422 171.438C261.62 171.927 261.932 172.255 262.359 172.422C262.786 172.578 263.531 172.698 264.594 172.781ZM279.453 174.641C281.036 174.641 282.656 174.281 284.312 173.562C285.979 172.833 287.297 171.766 288.266 170.359C288.266 170.224 288.203 170.109 288.078 170.016C287.964 169.922 287.833 169.875 287.688 169.875C286.125 171.771 283.828 172.719 280.797 172.719C277.599 172.719 275.182 171.755 273.547 169.828C271.922 167.891 271.109 165.484 271.109 162.609C271.109 161.307 271.25 160.052 271.531 158.844C271.823 157.625 272.271 156.464 272.875 155.359C273.49 154.245 274.359 153.344 275.484 152.656C276.62 151.969 277.943 151.625 279.453 151.625C280.484 151.625 281.438 151.786 282.312 152.109C283.188 152.432 283.906 152.812 284.469 153.25C285.031 153.688 285.578 154.276 286.109 155.016C286.651 155.745 287.057 156.38 287.328 156.922C287.609 157.453 287.943 158.13 288.328 158.953C288.641 158.911 288.833 158.797 288.906 158.609C288.135 155.516 286.969 153.396 285.406 152.25C283.854 151.094 281.87 150.516 279.453 150.516C278.474 150.516 277.474 150.635 276.453 150.875C275.432 151.104 274.38 151.521 273.297 152.125C272.224 152.719 271.276 153.458 270.453 154.344C269.63 155.219 268.953 156.375 268.422 157.812C267.891 159.24 267.625 160.839 267.625 162.609C267.625 164.38 267.891 165.979 268.422 167.406C268.953 168.833 269.63 169.984 270.453 170.859C271.276 171.734 272.224 172.469 273.297 173.062C274.38 173.646 275.432 174.052 276.453 174.281C277.474 174.521 278.474 174.641 279.453 174.641ZM287.938 159.656C287.49 158.656 287.078 157.833 286.703 157.188C286.328 156.531 285.828 155.802 285.203 155C284.578 154.188 283.833 153.557 282.969 153.109C282.104 152.661 281.135 152.391 280.062 152.297C278.875 152.391 277.839 152.771 276.953 153.438C276.068 154.094 275.38 154.938 274.891 155.969C274.411 157 274.057 158.073 273.828 159.188C273.609 160.292 273.5 161.432 273.5 162.609C273.5 165.234 274.161 167.438 275.484 169.219C276.807 171 278.781 171.953 281.406 172.078C283.948 171.953 285.943 171.005 287.391 169.234C287.797 169.234 288.151 169.37 288.453 169.641C288.755 169.901 288.906 170.214 288.906 170.578C287.854 172.109 286.432 173.276 284.641 174.078C282.849 174.88 281.12 175.281 279.453 175.281C278.411 175.281 277.354 175.156 276.281 174.906C275.219 174.667 274.115 174.24 272.969 173.625C271.833 173 270.828 172.224 269.953 171.297C269.078 170.37 268.365 169.156 267.812 167.656C267.26 166.146 266.984 164.464 266.984 162.609C266.984 160.672 267.271 158.943 267.844 157.422C268.417 155.891 269.151 154.667 270.047 153.75C270.943 152.833 271.99 152.073 273.188 151.469C274.385 150.854 275.547 150.438 276.672 150.219C277.807 149.99 278.948 149.875 280.094 149.875C281.656 149.875 283.354 150.083 285.188 150.5C287.021 150.917 288.333 151.177 289.125 151.281C288.781 152.625 288.646 153.807 288.719 154.828C288.792 155.839 289.089 157.078 289.609 158.547C289.307 159.161 288.75 159.531 287.938 159.656ZM299.406 171.859C299.323 167.505 299.281 164.219 299.281 162C299.281 159.438 299.333 156.526 299.438 153.266C299.458 152.474 301.198 151.974 304.656 151.766C304.719 151.568 304.719 151.323 304.656 151.031C301.927 151.115 299.797 151.156 298.266 151.156C296.984 151.156 295.167 151.115 292.812 151.031C292.729 151.219 292.729 151.464 292.812 151.766C295.208 151.995 296.417 152.495 296.438 153.266C296.542 155.714 296.594 158.625 296.594 162C296.594 165.302 296.531 168.589 296.406 171.859C296.385 172.63 295.177 173.13 292.781 173.359C292.698 173.526 292.698 173.771 292.781 174.094C294.552 174.031 296.37 174 298.234 174C300.453 174 302.583 174.031 304.625 174.094C304.708 173.927 304.708 173.682 304.625 173.359C301.167 173.151 299.427 172.651 299.406 171.859ZM292.312 152.375C292.135 151.688 292.156 151.016 292.375 150.359C293.292 150.359 294.531 150.385 296.094 150.438C297.667 150.49 298.76 150.516 299.375 150.516C299.823 150.516 300.688 150.505 301.969 150.484C303.25 150.464 304.359 150.453 305.297 150.453C305.495 151.047 305.505 151.688 305.328 152.375C303.026 152.604 301.865 152.911 301.844 153.297C301.719 155.901 301.656 159.188 301.656 163.156C301.656 166.99 301.708 169.88 301.812 171.828C301.812 171.891 301.839 171.953 301.891 172.016C301.943 172.078 302.016 172.13 302.109 172.172C302.214 172.214 302.318 172.26 302.422 172.312C302.526 172.354 302.667 172.396 302.844 172.438C303.031 172.479 303.188 172.516 303.312 172.547C303.438 172.578 303.604 172.609 303.812 172.641C304.031 172.672 304.203 172.698 304.328 172.719C304.464 172.74 304.641 172.76 304.859 172.781C305.089 172.802 305.245 172.823 305.328 172.844C305.505 173.427 305.474 174.068 305.234 174.766C301.391 174.682 299.057 174.641 298.234 174.641C297.672 174.641 295.708 174.682 292.344 174.766C292.083 174.047 292.083 173.375 292.344 172.75C294.604 172.521 295.745 172.214 295.766 171.828C295.891 169.224 295.953 165.948 295.953 162C295.953 158.646 295.901 155.745 295.797 153.297C295.776 152.911 294.615 152.604 292.312 152.375ZM332.453 173.359C331.87 173.328 331.302 173.286 330.75 173.234C330.208 173.172 329.714 173.089 329.266 172.984C328.818 172.88 328.438 172.745 328.125 172.578C327.823 172.401 327.625 172.182 327.531 171.922L318.891 150.578C318.714 150.589 318.542 150.661 318.375 150.797C318.302 152.089 317.906 153.125 317.188 153.906L317.547 154.828L310.953 171.406C310.536 172.448 309.255 173.099 307.109 173.359C307.047 173.505 307.016 173.635 307.016 173.75C307.016 173.875 307.047 174 307.109 174.125C308.297 174.083 309.25 174.052 309.969 174.031C310.698 174.01 311.198 174 311.469 174C311.708 174 312.25 174.01 313.094 174.031C313.948 174.052 315.104 174.083 316.562 174.125C316.625 174 316.656 173.875 316.656 173.75C316.656 173.635 316.625 173.505 316.562 173.359C315.698 173.276 314.995 173.188 314.453 173.094C313.911 172.99 313.49 172.88 313.188 172.766C312.885 172.651 312.682 172.526 312.578 172.391C312.474 172.245 312.422 172.083 312.422 171.906C312.422 171.792 312.443 171.677 312.484 171.562L314.766 165.844C315.922 165.823 316.854 165.807 317.562 165.797C318.281 165.786 318.776 165.781 319.047 165.781C319.641 165.781 320.167 165.786 320.625 165.797C321.094 165.797 321.495 165.802 321.828 165.812L324.094 171.562C324.146 171.719 324.172 171.839 324.172 171.922C324.172 172.203 324.026 172.453 323.734 172.672C323.453 172.891 323.104 173.042 322.688 173.125L321 173.359C320.938 173.505 320.906 173.635 320.906 173.75C320.906 173.875 320.938 174 321 174.125C321.885 174.094 322.781 174.068 323.688 174.047C324.604 174.026 325.542 174.016 326.5 174.016C327.458 174.016 328.427 174.026 329.406 174.047C330.396 174.068 331.411 174.094 332.453 174.125C332.526 173.979 332.562 173.854 332.562 173.75C332.562 173.688 332.552 173.625 332.531 173.562C332.51 173.5 332.484 173.432 332.453 173.359ZM319.047 164.562C317.536 164.562 316.292 164.542 315.312 164.5L318.281 156.844H318.344L321.328 164.531C320.766 164.552 320.005 164.562 319.047 164.562ZM318.312 158.484L316.234 163.891C317.495 163.953 318.88 163.964 320.391 163.922L318.312 158.484ZM332.938 172.781C333.198 173.406 333.188 174.068 332.906 174.766H320.516C320.266 174.047 320.266 173.385 320.516 172.781C321.651 172.719 322.453 172.604 322.922 172.438C323.391 172.26 323.552 171.979 323.406 171.594L321.359 166.422C319.432 166.349 317.37 166.37 315.172 166.484L313.156 171.656C313.094 171.833 313.141 171.995 313.297 172.141C313.464 172.276 313.729 172.385 314.094 172.469C314.458 172.552 314.885 172.62 315.375 172.672C315.865 172.724 316.417 172.76 317.031 172.781C317.292 173.406 317.281 174.068 317 174.766C313.583 174.641 310.141 174.641 306.672 174.766C306.391 174.068 306.38 173.406 306.641 172.781C308.786 172.531 310 172.062 310.281 171.375L316.875 154.797C316.833 154.714 316.75 154.526 316.625 154.234C316.51 153.932 316.443 153.734 316.422 153.641C317.234 152.818 317.682 151.755 317.766 150.453C318.682 150.005 319.76 149.75 321 149.688L329.766 171.438C329.964 171.927 330.276 172.255 330.703 172.422C331.13 172.578 331.875 172.698 332.938 172.781Z" fill="#1C495E"/>
<path d="M141.083 196.967C141.092 197.148 141.637 197.292 142.716 197.399C142.784 197.688 142.774 197.998 142.687 198.33C141.344 198.31 140.333 198.3 139.654 198.3C138.985 198.3 137.979 198.31 136.637 198.33C136.48 198.042 136.48 197.731 136.637 197.399C137.701 197.292 138.238 197.153 138.248 196.982C138.297 195.629 138.326 194.418 138.336 193.349L135.604 188.596C135.365 188.195 134.801 187.951 133.912 187.863C133.873 187.712 133.854 187.565 133.854 187.424C133.854 187.272 133.883 187.109 133.941 186.933C134.972 186.972 136.185 186.992 137.582 186.992C138.592 186.992 139.339 186.982 139.823 186.962C139.872 187.128 139.896 187.272 139.896 187.395C139.896 187.536 139.872 187.697 139.823 187.878C139.3 187.917 138.939 187.961 138.739 188.01C138.539 188.059 138.438 188.134 138.438 188.237C138.438 188.266 139.034 189.35 140.226 191.489C141.554 189.282 142.218 188.166 142.218 188.142C142.218 188.093 142.188 188.049 142.13 188.01C142.071 187.971 141.991 187.939 141.888 187.915C141.791 187.89 141.698 187.873 141.61 187.863C141.527 187.854 141.429 187.844 141.317 187.834C141.209 187.819 141.146 187.812 141.126 187.812C141.043 187.553 141.058 187.26 141.17 186.933C142.069 186.972 142.738 186.992 143.177 186.992C143.587 186.992 144.183 186.972 144.964 186.933C145.077 187.27 145.077 187.58 144.964 187.863C144.212 187.932 143.717 188.156 143.478 188.537L141.002 192.507C141.002 194.489 141.029 195.976 141.083 196.967ZM138.548 196.997C138.534 197.358 137.967 197.592 136.849 197.7C136.8 197.822 136.8 197.941 136.849 198.059C139.007 198.02 140.858 198.015 142.401 198.044C142.44 197.946 142.44 197.827 142.401 197.685C140.78 197.587 139.964 197.358 139.955 196.997C139.906 195.595 139.881 194.509 139.881 193.737L143.229 188.383C143.517 187.915 144.024 187.646 144.752 187.578C144.796 187.495 144.796 187.38 144.752 187.233C144.205 187.263 143.651 187.277 143.089 187.277C142.582 187.277 142.013 187.263 141.383 187.233C141.339 187.312 141.339 187.426 141.383 187.578C142.101 187.656 142.484 187.814 142.533 188.054C142.552 188.146 142.523 188.256 142.445 188.383L139.793 192.763L137.391 188.479C137.22 188.156 137.271 187.944 137.545 187.841C137.823 187.734 138.487 187.646 139.537 187.578C139.576 187.436 139.576 187.321 139.537 187.233C138.097 187.302 136.3 187.302 134.146 187.233C134.107 187.321 134.107 187.436 134.146 187.578C135.011 187.656 135.587 187.956 135.875 188.479L138.636 193.291C138.626 194.438 138.597 195.673 138.548 196.997ZM152.457 187.827C152.081 187.856 151.744 187.946 151.446 188.098C151.148 188.249 150.887 188.447 150.663 188.691C150.438 188.93 150.245 189.206 150.084 189.519C149.928 189.826 149.798 190.153 149.696 190.5C149.598 190.847 149.525 191.206 149.476 191.577C149.432 191.943 149.41 192.304 149.41 192.661C149.41 193.017 149.432 193.381 149.476 193.752C149.525 194.118 149.601 194.475 149.703 194.821C149.806 195.168 149.935 195.495 150.091 195.803C150.252 196.11 150.445 196.384 150.67 196.623C150.899 196.857 151.161 197.048 151.454 197.194C151.751 197.341 152.086 197.429 152.457 197.458C152.838 197.429 153.177 197.341 153.475 197.194C153.773 197.043 154.034 196.85 154.259 196.616C154.488 196.376 154.681 196.103 154.837 195.795C154.999 195.483 155.128 195.156 155.226 194.814C155.328 194.467 155.401 194.111 155.445 193.745C155.494 193.374 155.519 193.012 155.519 192.661C155.519 192.304 155.494 191.943 155.445 191.577C155.401 191.206 155.328 190.847 155.226 190.5C155.128 190.148 154.999 189.819 154.837 189.511C154.681 189.199 154.488 188.923 154.259 188.684C154.034 188.444 153.771 188.249 153.468 188.098C153.17 187.946 152.833 187.856 152.457 187.827ZM152.201 197.773C151.717 197.773 151.285 197.702 150.904 197.561C150.523 197.414 150.187 197.219 149.894 196.975C149.605 196.726 149.359 196.435 149.154 196.103C148.954 195.771 148.788 195.417 148.656 195.041C148.529 194.66 148.436 194.267 148.377 193.862C148.319 193.452 148.29 193.051 148.29 192.661C148.29 192.27 148.319 191.872 148.377 191.467C148.436 191.057 148.529 190.661 148.656 190.28C148.783 189.899 148.949 189.541 149.154 189.204C149.359 188.867 149.605 188.574 149.894 188.325C150.182 188.076 150.516 187.878 150.897 187.731C151.283 187.585 151.717 187.512 152.201 187.512C152.645 187.512 153.043 187.585 153.395 187.731C153.746 187.873 154.054 188.071 154.317 188.325C154.586 188.574 154.815 188.867 155.006 189.204C155.196 189.541 155.35 189.899 155.467 190.28C155.589 190.661 155.677 191.057 155.731 191.467C155.79 191.872 155.819 192.27 155.819 192.661C155.819 193.051 155.792 193.449 155.738 193.854C155.685 194.255 155.597 194.646 155.475 195.026C155.357 195.402 155.204 195.759 155.013 196.096C154.828 196.428 154.601 196.718 154.332 196.967C154.063 197.216 153.753 197.414 153.402 197.561C153.05 197.702 152.65 197.773 152.201 197.773ZM152.201 198.3C152.538 198.3 152.901 198.266 153.292 198.198C153.683 198.129 154.071 198.012 154.457 197.846C154.847 197.68 155.223 197.458 155.584 197.18C155.946 196.901 156.263 196.555 156.537 196.14C156.815 195.72 157.037 195.224 157.203 194.653C157.369 194.077 157.452 193.413 157.452 192.661C157.452 191.923 157.369 191.271 157.203 190.705C157.042 190.134 156.825 189.638 156.551 189.218C156.278 188.798 155.963 188.447 155.606 188.164C155.25 187.88 154.876 187.653 154.486 187.482C154.095 187.307 153.702 187.182 153.307 187.109C152.916 187.031 152.547 186.992 152.201 186.992C151.864 186.992 151.493 187.026 151.087 187.094C150.682 187.158 150.274 187.272 149.864 187.438C149.454 187.6 149.056 187.819 148.67 188.098C148.285 188.376 147.943 188.725 147.645 189.145C147.347 189.565 147.108 190.065 146.927 190.646C146.747 191.223 146.656 191.894 146.656 192.661C146.656 193.403 146.742 194.057 146.913 194.624C147.088 195.19 147.32 195.683 147.608 196.103C147.896 196.518 148.229 196.867 148.604 197.15C148.985 197.429 149.381 197.653 149.791 197.824C150.201 197.995 150.614 198.117 151.029 198.19C151.444 198.264 151.834 198.3 152.201 198.3ZM152.457 198.63C151.476 198.63 150.606 198.486 149.85 198.198C149.093 197.915 148.456 197.514 147.938 196.997C147.42 196.474 147.027 195.847 146.759 195.114C146.49 194.377 146.356 193.559 146.356 192.661C146.356 191.762 146.49 190.947 146.759 190.214C147.027 189.477 147.42 188.85 147.938 188.332C148.456 187.81 149.093 187.407 149.85 187.124C150.606 186.835 151.476 186.691 152.457 186.691C153.38 186.691 154.217 186.823 154.969 187.087C155.726 187.351 156.371 187.736 156.903 188.244C157.44 188.747 157.853 189.37 158.141 190.112C158.434 190.854 158.58 191.704 158.58 192.661C158.58 193.623 158.434 194.475 158.141 195.217C157.853 195.954 157.44 196.577 156.903 197.084C156.371 197.592 155.726 197.976 154.969 198.234C154.217 198.498 153.38 198.63 152.457 198.63ZM166.183 186.992C165.714 186.992 165.238 187.043 164.754 187.146C164.276 187.243 163.773 187.426 163.246 187.695C162.723 187.963 162.262 188.303 161.861 188.713C161.461 189.123 161.131 189.67 160.873 190.354C160.614 191.032 160.484 191.801 160.484 192.661C160.484 193.52 160.614 194.292 160.873 194.975C161.131 195.654 161.461 196.196 161.861 196.601C162.262 197.001 162.723 197.336 163.246 197.604C163.773 197.868 164.276 198.049 164.754 198.146C165.238 198.249 165.714 198.3 166.183 198.3C166.92 198.3 167.582 198.229 168.167 198.088C168.753 197.951 169.417 197.736 170.16 197.443C169.94 196.843 169.83 196.083 169.83 195.166V194.082C169.83 193.725 170.643 193.491 172.269 193.378C172.323 193.261 172.323 193.146 172.269 193.034C170.99 193.073 169.991 193.093 169.273 193.093C168.673 193.093 167.823 193.073 166.725 193.034C166.69 193.146 166.69 193.261 166.725 193.378C167.853 193.491 168.417 193.725 168.417 194.082V197.055C167.997 197.534 167.252 197.773 166.183 197.773C165.611 197.773 165.091 197.668 164.623 197.458C164.154 197.248 163.766 196.972 163.458 196.63C163.155 196.284 162.901 195.883 162.696 195.429C162.491 194.975 162.342 194.519 162.25 194.06C162.162 193.596 162.118 193.129 162.118 192.661C162.118 192.06 162.191 191.474 162.337 190.903C162.489 190.327 162.716 189.78 163.019 189.262C163.326 188.74 163.751 188.317 164.293 187.995C164.84 187.673 165.47 187.512 166.183 187.512C166.661 187.512 167.105 187.587 167.516 187.739C167.926 187.89 168.263 188.068 168.526 188.273C168.795 188.479 169.054 188.754 169.303 189.101C169.552 189.443 169.74 189.741 169.867 189.995C169.999 190.244 170.155 190.561 170.335 190.947C170.487 190.927 170.577 190.874 170.606 190.786C170.245 189.335 169.698 188.342 168.966 187.805C168.238 187.263 167.311 186.992 166.183 186.992ZM170.16 191.276C169.95 190.808 169.757 190.422 169.581 190.119C169.405 189.812 169.168 189.47 168.871 189.094C168.578 188.713 168.229 188.417 167.823 188.208C167.418 187.998 166.966 187.871 166.468 187.827C165.897 187.861 165.394 188.034 164.959 188.347C164.525 188.654 164.188 189.05 163.949 189.533C163.709 190.017 163.531 190.522 163.414 191.049C163.297 191.572 163.238 192.109 163.238 192.661C163.238 193.422 163.341 194.15 163.546 194.843C163.751 195.537 164.11 196.149 164.623 196.682C165.14 197.209 165.775 197.473 166.527 197.473C167.225 197.473 167.755 197.294 168.116 196.938V194.082C168.116 193.916 167.572 193.776 166.483 193.664C166.351 193.322 166.361 193.007 166.512 192.719C167.972 192.788 169.991 192.802 172.569 192.763C172.682 193.056 172.687 193.356 172.584 193.664C171.495 193.776 170.951 193.916 170.951 194.082V195.166C170.951 196.054 171.09 196.875 171.368 197.626C170.68 197.885 170.167 198.063 169.83 198.161C169.498 198.264 169.015 198.361 168.38 198.454C167.745 198.552 167.013 198.601 166.183 198.601C165.68 198.601 165.177 198.547 164.674 198.439C164.171 198.337 163.644 198.146 163.092 197.868C162.54 197.585 162.054 197.231 161.634 196.806C161.214 196.381 160.868 195.812 160.594 195.1C160.321 194.382 160.184 193.569 160.184 192.661C160.184 191.752 160.318 190.942 160.587 190.229C160.855 189.511 161.197 188.938 161.612 188.508C162.027 188.078 162.506 187.722 163.048 187.438C163.595 187.15 164.117 186.955 164.615 186.853C165.118 186.745 165.621 186.691 166.124 186.691C166.935 186.691 167.833 186.794 168.819 186.999C169.811 187.204 170.44 187.321 170.709 187.351C170.553 187.98 170.492 188.535 170.526 189.013C170.56 189.487 170.697 190.068 170.936 190.756C170.794 191.044 170.536 191.218 170.16 191.276ZM185.218 197.7C184.945 197.685 184.679 197.666 184.42 197.641C184.166 197.612 183.934 197.573 183.724 197.524C183.514 197.475 183.336 197.412 183.189 197.333C183.048 197.25 182.955 197.148 182.911 197.026L178.861 187.021C178.778 187.026 178.697 187.06 178.619 187.124C178.585 187.729 178.399 188.215 178.062 188.581L178.231 189.013L175.14 196.784C174.945 197.272 174.344 197.578 173.338 197.7C173.309 197.768 173.294 197.829 173.294 197.883C173.294 197.941 173.309 198 173.338 198.059C173.895 198.039 174.342 198.024 174.679 198.015C175.021 198.005 175.255 198 175.382 198C175.494 198 175.748 198.005 176.144 198.015C176.544 198.024 177.086 198.039 177.77 198.059C177.799 198 177.813 197.941 177.813 197.883C177.813 197.829 177.799 197.768 177.77 197.7C177.364 197.661 177.035 197.619 176.781 197.575C176.527 197.526 176.329 197.475 176.188 197.421C176.046 197.368 175.951 197.309 175.902 197.246C175.853 197.177 175.829 197.102 175.829 197.019C175.829 196.965 175.838 196.911 175.858 196.857L176.927 194.177C177.469 194.167 177.906 194.16 178.238 194.155C178.575 194.15 178.807 194.147 178.934 194.147C179.212 194.147 179.459 194.15 179.674 194.155C179.894 194.155 180.082 194.157 180.238 194.162L181.3 196.857C181.324 196.931 181.336 196.987 181.336 197.026C181.336 197.158 181.268 197.275 181.131 197.377C181 197.48 180.836 197.551 180.641 197.59L179.85 197.7C179.82 197.768 179.806 197.829 179.806 197.883C179.806 197.941 179.82 198 179.85 198.059C180.265 198.044 180.685 198.032 181.109 198.022C181.539 198.012 181.979 198.007 182.428 198.007C182.877 198.007 183.331 198.012 183.79 198.022C184.254 198.032 184.73 198.044 185.218 198.059C185.252 197.99 185.27 197.932 185.27 197.883C185.27 197.854 185.265 197.824 185.255 197.795C185.245 197.766 185.233 197.734 185.218 197.7ZM178.934 193.576C178.226 193.576 177.643 193.566 177.184 193.547L178.575 189.958H178.604L180.003 193.562C179.74 193.571 179.383 193.576 178.934 193.576ZM178.59 190.727L177.616 193.261C178.207 193.291 178.856 193.295 179.564 193.276L178.59 190.727ZM185.445 197.429C185.567 197.722 185.562 198.032 185.431 198.359H179.623C179.505 198.022 179.505 197.712 179.623 197.429C180.155 197.399 180.531 197.346 180.75 197.268C180.97 197.185 181.046 197.053 180.978 196.872L180.018 194.448C179.115 194.414 178.148 194.423 177.118 194.477L176.173 196.901C176.144 196.984 176.166 197.06 176.239 197.128C176.317 197.192 176.441 197.243 176.612 197.282C176.783 197.321 176.983 197.353 177.213 197.377C177.442 197.402 177.701 197.419 177.989 197.429C178.111 197.722 178.106 198.032 177.975 198.359C176.373 198.3 174.759 198.3 173.133 198.359C173.001 198.032 172.997 197.722 173.119 197.429C174.125 197.312 174.693 197.092 174.825 196.77L177.916 188.999C177.896 188.959 177.857 188.872 177.799 188.735C177.745 188.593 177.713 188.5 177.704 188.457C178.084 188.071 178.294 187.573 178.333 186.962C178.763 186.752 179.269 186.633 179.85 186.604L183.958 196.799C184.051 197.028 184.198 197.182 184.398 197.26C184.598 197.333 184.947 197.39 185.445 197.429ZM201.991 197.7C201.717 197.685 201.451 197.666 201.192 197.641C200.938 197.612 200.707 197.573 200.497 197.524C200.287 197.475 200.108 197.412 199.962 197.333C199.82 197.25 199.728 197.148 199.684 197.026L195.633 187.021C195.55 187.026 195.47 187.06 195.392 187.124C195.357 187.729 195.172 188.215 194.835 188.581L195.003 189.013L191.913 196.784C191.717 197.272 191.117 197.578 190.111 197.7C190.082 197.768 190.067 197.829 190.067 197.883C190.067 197.941 190.082 198 190.111 198.059C190.667 198.039 191.114 198.024 191.451 198.015C191.793 198.005 192.027 198 192.154 198C192.267 198 192.521 198.005 192.916 198.015C193.316 198.024 193.858 198.039 194.542 198.059C194.571 198 194.586 197.941 194.586 197.883C194.586 197.829 194.571 197.768 194.542 197.7C194.137 197.661 193.807 197.619 193.553 197.575C193.299 197.526 193.102 197.475 192.96 197.421C192.818 197.368 192.723 197.309 192.674 197.246C192.625 197.177 192.601 197.102 192.601 197.019C192.601 196.965 192.611 196.911 192.63 196.857L193.7 194.177C194.242 194.167 194.679 194.16 195.011 194.155C195.348 194.15 195.58 194.147 195.707 194.147C195.985 194.147 196.231 194.15 196.446 194.155C196.666 194.155 196.854 194.157 197.01 194.162L198.072 196.857C198.097 196.931 198.109 196.987 198.109 197.026C198.109 197.158 198.041 197.275 197.904 197.377C197.772 197.48 197.608 197.551 197.413 197.59L196.622 197.7C196.593 197.768 196.578 197.829 196.578 197.883C196.578 197.941 196.593 198 196.622 198.059C197.037 198.044 197.457 198.032 197.882 198.022C198.312 198.012 198.751 198.007 199.2 198.007C199.649 198.007 200.104 198.012 200.562 198.022C201.026 198.032 201.502 198.044 201.991 198.059C202.025 197.99 202.042 197.932 202.042 197.883C202.042 197.854 202.037 197.824 202.027 197.795C202.018 197.766 202.005 197.734 201.991 197.7ZM195.707 193.576C194.999 193.576 194.415 193.566 193.956 193.547L195.348 189.958H195.377L196.776 193.562C196.512 193.571 196.156 193.576 195.707 193.576ZM195.362 190.727L194.388 193.261C194.979 193.291 195.628 193.295 196.336 193.276L195.362 190.727ZM202.218 197.429C202.34 197.722 202.335 198.032 202.203 198.359H196.395C196.278 198.022 196.278 197.712 196.395 197.429C196.927 197.399 197.303 197.346 197.523 197.268C197.743 197.185 197.818 197.053 197.75 196.872L196.791 194.448C195.887 194.414 194.92 194.423 193.89 194.477L192.945 196.901C192.916 196.984 192.938 197.06 193.011 197.128C193.089 197.192 193.214 197.243 193.385 197.282C193.556 197.321 193.756 197.353 193.985 197.377C194.215 197.402 194.474 197.419 194.762 197.429C194.884 197.722 194.879 198.032 194.747 198.359C193.146 198.3 191.532 198.3 189.906 198.359C189.774 198.032 189.769 197.722 189.891 197.429C190.897 197.312 191.466 197.092 191.598 196.77L194.688 188.999C194.669 188.959 194.63 188.872 194.571 188.735C194.518 188.593 194.486 188.5 194.476 188.457C194.857 188.071 195.067 187.573 195.106 186.962C195.536 186.752 196.041 186.633 196.622 186.604L200.731 196.799C200.824 197.028 200.97 197.182 201.17 197.26C201.371 197.333 201.72 197.39 202.218 197.429ZM207.477 186.691C208.175 186.691 208.817 186.789 209.403 186.984C209.989 187.18 210.516 187.307 210.985 187.365C210.726 188.273 210.716 189.252 210.956 190.302C210.707 190.512 210.421 190.634 210.099 190.668C210.06 190.576 209.989 190.383 209.886 190.09C209.789 189.792 209.693 189.548 209.601 189.357C209.513 189.167 209.388 188.95 209.227 188.706C209.071 188.461 208.861 188.269 208.597 188.127C208.338 187.98 208.041 187.88 207.704 187.827C207.21 187.871 206.83 188.022 206.561 188.281C206.292 188.54 206.158 188.874 206.158 189.284C206.158 189.704 206.266 190.051 206.48 190.324C206.695 190.593 206.974 190.795 207.315 190.932C207.662 191.064 208.043 191.181 208.458 191.284C208.873 191.381 209.286 191.503 209.696 191.65C210.106 191.792 210.482 191.979 210.824 192.214C211.17 192.443 211.451 192.788 211.666 193.247C211.881 193.706 211.988 194.265 211.988 194.924C211.988 195.725 211.756 196.413 211.292 196.989C210.829 197.565 210.282 197.978 209.652 198.227C209.022 198.476 208.377 198.601 207.718 198.601C206.268 198.601 204.833 198.281 203.412 197.641C203.441 197.011 203.456 196.625 203.456 196.484C203.456 195.693 203.38 194.843 203.229 193.935C203.668 193.725 204.159 193.715 204.701 193.906C204.881 195.014 205.23 195.864 205.748 196.455C206.271 197.045 206.842 197.375 207.462 197.443C208.043 197.404 208.49 197.216 208.802 196.879C209.12 196.538 209.278 196.105 209.278 195.583C209.278 195.144 209.176 194.772 208.971 194.47C208.766 194.162 208.495 193.925 208.158 193.759C207.821 193.588 207.455 193.435 207.059 193.298C206.668 193.161 206.273 193.017 205.873 192.866C205.472 192.709 205.104 192.524 204.767 192.309C204.435 192.094 204.166 191.794 203.961 191.408C203.756 191.022 203.653 190.554 203.653 190.002C203.653 189.504 203.731 189.057 203.888 188.662C204.049 188.266 204.256 187.949 204.51 187.709C204.769 187.47 205.069 187.27 205.411 187.109C205.758 186.948 206.1 186.838 206.437 186.779C206.778 186.721 207.125 186.691 207.477 186.691ZM207.477 186.992C207.066 186.992 206.668 187.041 206.283 187.138C205.897 187.231 205.521 187.385 205.155 187.6C204.793 187.814 204.503 188.129 204.283 188.544C204.063 188.959 203.954 189.445 203.954 190.002C203.954 190.495 204.056 190.92 204.261 191.276C204.466 191.628 204.735 191.901 205.067 192.097C205.404 192.292 205.772 192.465 206.173 192.617C206.573 192.763 206.969 192.912 207.359 193.063C207.755 193.215 208.121 193.386 208.458 193.576C208.795 193.767 209.066 194.033 209.271 194.375C209.476 194.711 209.579 195.114 209.579 195.583C209.579 196.232 209.371 196.757 208.956 197.158C208.541 197.558 207.953 197.758 207.191 197.758C206.458 197.758 205.777 197.453 205.147 196.843C204.518 196.232 204.103 195.319 203.902 194.104C203.805 194.04 203.69 194.04 203.558 194.104C203.69 194.87 203.756 195.664 203.756 196.484C203.756 196.713 203.746 197.038 203.727 197.458C204.938 198.02 206.092 198.3 207.191 198.3C208.099 198.3 208.939 198.032 209.71 197.495C210.482 196.953 210.868 196.196 210.868 195.224C210.868 194.672 210.76 194.206 210.545 193.825C210.331 193.439 210.05 193.139 209.703 192.924C209.356 192.709 208.976 192.524 208.561 192.368C208.146 192.211 207.733 192.065 207.323 191.928C206.913 191.787 206.534 191.63 206.188 191.459C205.846 191.289 205.567 191.047 205.353 190.734C205.138 190.417 205.03 190.034 205.03 189.584C205.03 188.955 205.243 188.452 205.667 188.076C206.092 187.7 206.695 187.512 207.477 187.512C208.834 187.512 209.769 188.452 210.282 190.332C210.433 190.356 210.538 190.322 210.597 190.229C210.436 189.038 210.082 188.2 209.535 187.717C208.993 187.233 208.307 186.992 207.477 186.992ZM221.854 196.997C221.854 197.358 221.29 197.592 220.162 197.7C220.123 197.778 220.123 197.893 220.162 198.044C220.992 198.015 221.842 198 222.711 198C223.751 198 224.752 198.015 225.714 198.044C225.753 197.956 225.753 197.841 225.714 197.7C224.093 197.602 223.277 197.368 223.268 196.997C223.214 195.786 223.187 194.335 223.187 192.646C223.187 190.947 223.214 189.492 223.268 188.281C223.277 187.91 224.093 187.675 225.714 187.578C225.763 187.456 225.763 187.341 225.714 187.233C224.43 187.272 223.429 187.292 222.711 187.292C222.11 187.292 221.261 187.272 220.162 187.233C220.133 187.351 220.133 187.465 220.162 187.578C221.28 187.685 221.844 187.919 221.854 188.281C221.883 189.179 221.908 190.534 221.927 192.346C221.029 192.375 220.179 192.39 219.378 192.39C218.041 192.39 217.071 192.38 216.471 192.36C216.471 190.72 216.5 189.36 216.559 188.281C216.568 187.91 217.384 187.675 219.005 187.578C219.034 187.485 219.034 187.37 219.005 187.233C217.726 187.272 216.725 187.292 216.002 187.292C215.406 187.292 214.557 187.272 213.453 187.233C213.414 187.321 213.414 187.436 213.453 187.578C214.576 187.685 215.143 187.919 215.152 188.281C215.201 189.428 215.226 190.793 215.226 192.375C215.226 193.923 215.196 195.463 215.138 196.997C215.128 197.358 214.562 197.592 213.438 197.7C213.399 197.778 213.399 197.893 213.438 198.044C214.269 198.015 215.118 198 215.987 198C217.027 198 218.028 198.015 218.99 198.044C219.029 197.966 219.029 197.851 218.99 197.7C217.369 197.602 216.554 197.368 216.544 196.997C216.495 195.527 216.471 194.152 216.471 192.873C217.672 192.849 218.641 192.836 219.378 192.836C220.179 192.836 221.029 192.854 221.927 192.888C221.917 193.977 221.893 195.346 221.854 196.997ZM221.554 196.997C221.593 195.053 221.617 193.828 221.627 193.32C220.67 193.3 219.92 193.291 219.378 193.291C218.958 193.291 218.565 193.293 218.199 193.298C217.838 193.303 217.638 193.305 217.599 193.305C217.599 194.433 217.623 195.659 217.672 196.982C217.672 197.011 217.682 197.041 217.701 197.07C217.721 197.099 217.755 197.124 217.804 197.143C217.853 197.163 217.901 197.185 217.95 197.209C218.004 197.229 218.07 197.248 218.148 197.268C218.231 197.287 218.304 197.304 218.368 197.319C218.431 197.333 218.512 197.348 218.609 197.363C218.712 197.377 218.792 197.39 218.851 197.399C218.915 197.409 218.998 197.419 219.1 197.429C219.208 197.438 219.281 197.448 219.32 197.458C219.398 197.731 219.383 198.032 219.276 198.359C217.474 198.32 216.378 198.3 215.987 198.3C215.729 198.3 214.811 198.32 213.233 198.359C213.111 198.022 213.111 197.707 213.233 197.414C214.293 197.307 214.828 197.163 214.837 196.982C214.896 195.449 214.925 193.913 214.925 192.375C214.925 190.803 214.901 189.443 214.852 188.295C214.842 188.115 214.298 187.971 213.219 187.863C213.136 187.551 213.146 187.236 213.248 186.918C213.678 186.918 214.259 186.931 214.991 186.955C215.729 186.979 216.241 186.992 216.529 186.992C216.739 186.992 217.145 186.987 217.745 186.977C218.346 186.967 218.866 186.962 219.305 186.962C219.393 187.241 219.398 187.541 219.32 187.863C218.241 187.971 217.696 188.115 217.687 188.295C217.628 189.643 217.599 190.903 217.599 192.075C218.067 192.104 218.661 192.109 219.378 192.089L221.627 192.06C221.607 190.468 221.583 189.213 221.554 188.295C221.544 188.115 221 187.971 219.92 187.863C219.833 187.521 219.842 187.207 219.95 186.918C220.658 186.967 221.617 186.992 222.828 186.992C223.058 186.992 223.524 186.987 224.227 186.977C224.935 186.967 225.528 186.962 226.007 186.962C226.1 187.241 226.107 187.541 226.029 187.863C224.945 187.971 224.398 188.115 224.388 188.295C224.339 189.506 224.315 190.957 224.315 192.646C224.315 194.326 224.339 195.771 224.388 196.982C224.398 197.163 224.945 197.307 226.029 197.414C226.107 197.727 226.095 198.042 225.992 198.359C224.415 198.32 223.497 198.3 223.238 198.3C222.848 198.3 221.751 198.32 219.95 198.359C219.833 198.022 219.833 197.707 219.95 197.414C221.019 197.307 221.554 197.167 221.554 196.997ZM230.284 187.739H230.299C230.602 187.719 230.992 187.709 231.471 187.709C232.213 187.709 232.779 187.939 233.17 188.398C233.565 188.857 233.763 189.453 233.763 190.185C233.763 190.927 233.583 191.572 233.221 192.119C232.865 192.661 232.306 192.932 231.544 192.932C231.095 192.932 230.65 192.875 230.211 192.763C230.211 191.044 230.235 189.37 230.284 187.739ZM233.463 190.185C233.463 189.555 233.272 189.025 232.892 188.596C232.516 188.166 232.018 187.976 231.397 188.024C231.358 189.904 231.339 191.411 231.339 192.543C231.437 192.573 231.585 192.597 231.786 192.617C232.357 192.553 232.779 192.285 233.053 191.811C233.326 191.337 233.463 190.795 233.463 190.185ZM228.878 196.997C228.868 197.358 228.302 197.592 227.179 197.7C227.14 197.778 227.14 197.893 227.179 198.044C228.009 198.015 228.861 198 229.735 198C230.775 198 231.773 198.015 232.73 198.044C232.77 197.966 232.77 197.851 232.73 197.7C231.109 197.602 230.294 197.368 230.284 196.997C230.235 195.625 230.211 194.399 230.211 193.32C230.763 193.432 231.273 193.488 231.742 193.488C232.542 194.978 233.597 196.481 234.906 198C235.155 198 235.514 198.002 235.982 198.007C236.456 198.012 236.881 198.017 237.257 198.022C237.638 198.027 237.999 198.034 238.341 198.044C238.38 197.956 238.38 197.841 238.341 197.7C237.54 197.641 236.864 197.446 236.312 197.114C235.765 196.777 235.125 196.157 234.393 195.253C233.895 194.624 233.446 193.959 233.045 193.261C233.768 193.022 234.337 192.624 234.752 192.067C235.167 191.511 235.375 190.883 235.375 190.185C235.375 189.306 235.091 188.596 234.525 188.054C233.958 187.507 233.175 187.233 232.174 187.233C228.873 187.272 227.213 187.272 227.193 187.233C227.164 187.351 227.164 187.465 227.193 187.578C228.316 187.685 228.883 187.919 228.893 188.281C228.941 189.428 228.966 190.793 228.966 192.375C228.966 193.923 228.937 195.463 228.878 196.997ZM228.578 196.982C228.636 195.761 228.666 194.226 228.666 192.375C228.666 190.803 228.641 189.443 228.592 188.295C228.583 188.115 228.038 187.971 226.959 187.863C226.876 187.541 226.886 187.226 226.988 186.918C227.525 186.948 228.109 186.962 228.739 186.962C229.369 186.962 230.091 186.958 230.907 186.948C231.722 186.938 232.32 186.933 232.701 186.933C233.883 186.933 234.811 187.233 235.484 187.834C236.158 188.43 236.495 189.213 236.495 190.185C236.495 190.874 236.297 191.508 235.902 192.089C235.506 192.67 234.974 193.11 234.305 193.408C234.637 193.95 235.023 194.506 235.462 195.078C235.98 195.766 236.488 196.313 236.986 196.718C237.489 197.124 238.045 197.355 238.656 197.414C238.734 197.727 238.724 198.042 238.626 198.359C237.928 198.339 236.644 198.32 234.774 198.3C233.402 196.699 232.33 195.195 231.559 193.789H231.339C231.339 194.697 231.363 195.761 231.412 196.982C231.412 197.011 231.424 197.041 231.449 197.07C231.473 197.099 231.568 197.146 231.734 197.209C231.9 197.272 232.152 197.329 232.489 197.377C232.831 197.421 233.021 197.448 233.06 197.458C233.143 197.731 233.128 198.032 233.016 198.359C231.214 198.32 230.121 198.3 229.735 198.3C229.471 198.3 228.551 198.32 226.974 198.359C226.852 198.022 226.852 197.707 226.974 197.414C228.033 197.307 228.568 197.163 228.578 196.982ZM250.931 197.7C250.658 197.685 250.392 197.666 250.133 197.641C249.879 197.612 249.647 197.573 249.437 197.524C249.227 197.475 249.049 197.412 248.902 197.333C248.761 197.25 248.668 197.148 248.624 197.026L244.574 187.021C244.491 187.026 244.41 187.06 244.332 187.124C244.298 187.729 244.112 188.215 243.775 188.581L243.944 189.013L240.853 196.784C240.658 197.272 240.057 197.578 239.051 197.7C239.022 197.768 239.007 197.829 239.007 197.883C239.007 197.941 239.022 198 239.051 198.059C239.608 198.039 240.055 198.024 240.392 198.015C240.733 198.005 240.968 198 241.095 198C241.207 198 241.461 198.005 241.856 198.015C242.257 198.024 242.799 198.039 243.482 198.059C243.512 198 243.526 197.941 243.526 197.883C243.526 197.829 243.512 197.768 243.482 197.7C243.077 197.661 242.748 197.619 242.494 197.575C242.24 197.526 242.042 197.475 241.9 197.421C241.759 197.368 241.664 197.309 241.615 197.246C241.566 197.177 241.542 197.102 241.542 197.019C241.542 196.965 241.551 196.911 241.571 196.857L242.64 194.177C243.182 194.167 243.619 194.16 243.951 194.155C244.288 194.15 244.52 194.147 244.647 194.147C244.925 194.147 245.172 194.15 245.387 194.155C245.606 194.155 245.794 194.157 245.951 194.162L247.013 196.857C247.037 196.931 247.049 196.987 247.049 197.026C247.049 197.158 246.981 197.275 246.844 197.377C246.712 197.48 246.549 197.551 246.354 197.59L245.562 197.7C245.533 197.768 245.519 197.829 245.519 197.883C245.519 197.941 245.533 198 245.562 198.059C245.978 198.044 246.397 198.032 246.822 198.022C247.252 198.012 247.691 198.007 248.141 198.007C248.59 198.007 249.044 198.012 249.503 198.022C249.967 198.032 250.443 198.044 250.931 198.059C250.965 197.99 250.982 197.932 250.982 197.883C250.982 197.854 250.978 197.824 250.968 197.795C250.958 197.766 250.946 197.734 250.931 197.7ZM244.647 193.576C243.939 193.576 243.355 193.566 242.896 193.547L244.288 189.958H244.317L245.716 193.562C245.453 193.571 245.096 193.576 244.647 193.576ZM244.303 190.727L243.329 193.261C243.919 193.291 244.569 193.295 245.277 193.276L244.303 190.727ZM251.158 197.429C251.28 197.722 251.275 198.032 251.144 198.359H245.335C245.218 198.022 245.218 197.712 245.335 197.429C245.868 197.399 246.244 197.346 246.463 197.268C246.683 197.185 246.759 197.053 246.69 196.872L245.731 194.448C244.828 194.414 243.861 194.423 242.831 194.477L241.886 196.901C241.856 196.984 241.878 197.06 241.952 197.128C242.03 197.192 242.154 197.243 242.325 197.282C242.496 197.321 242.696 197.353 242.926 197.377C243.155 197.402 243.414 197.419 243.702 197.429C243.824 197.722 243.819 198.032 243.688 198.359C242.086 198.3 240.472 198.3 238.846 198.359C238.714 198.032 238.709 197.722 238.832 197.429C239.837 197.312 240.406 197.092 240.538 196.77L243.629 188.999C243.609 188.959 243.57 188.872 243.512 188.735C243.458 188.593 243.426 188.5 243.417 188.457C243.797 188.071 244.007 187.573 244.046 186.962C244.476 186.752 244.981 186.633 245.562 186.604L249.671 196.799C249.764 197.028 249.911 197.182 250.111 197.26C250.311 197.333 250.66 197.39 251.158 197.429ZM253.758 196.887C253.739 197.331 253.199 197.602 252.14 197.7C252.101 197.778 252.101 197.893 252.14 198.044C253.062 198.015 253.717 198 254.103 198C254.713 198 255.409 198.015 256.19 198.044C256.229 197.893 256.229 197.778 256.19 197.7C255.121 197.602 254.581 197.331 254.571 196.887C254.522 195.368 254.498 194.045 254.498 192.917C254.498 191.374 254.518 190.009 254.557 188.823H254.63L258.204 197.817H258.277L261.617 188.999H261.683C261.732 190.468 261.756 191.774 261.756 192.917C261.756 194.504 261.732 195.859 261.683 196.982C261.673 197.109 261.615 197.219 261.507 197.312C261.405 197.399 261.251 197.47 261.046 197.524C260.841 197.573 260.667 197.607 260.526 197.626C260.384 197.646 260.204 197.666 259.984 197.685C259.945 197.763 259.945 197.878 259.984 198.029C260.814 198 261.664 197.985 262.533 197.985C263.573 197.985 264.574 198 265.536 198.029C265.575 197.941 265.575 197.827 265.536 197.685C263.915 197.587 263.099 197.358 263.089 196.997C263.031 195.463 263.001 193.923 263.001 192.375C263.001 190.876 263.021 189.511 263.06 188.281C263.07 187.919 263.885 187.69 265.506 187.592C265.545 187.451 265.545 187.336 265.506 187.248C264.544 187.277 263.265 187.292 261.668 187.292L258.548 195.437L255.545 187.292C254.354 187.292 253.299 187.272 252.381 187.233C252.333 187.331 252.333 187.424 252.381 187.512C252.962 187.595 253.341 187.717 253.517 187.878C253.697 188.034 253.792 188.398 253.802 188.969C253.836 190.17 253.854 191.306 253.854 192.375C253.854 193.854 253.822 195.358 253.758 196.887ZM253.458 196.887C253.521 195.349 253.553 193.845 253.553 192.375C253.553 191.306 253.536 190.17 253.502 188.969C253.492 188.52 253.404 188.232 253.238 188.105C253.077 187.973 252.726 187.871 252.184 187.797C252.047 187.5 252.052 187.207 252.198 186.918C253.321 186.967 254.781 186.992 256.578 186.992L258.98 193.408L261.456 186.992C262.765 186.992 264.21 186.972 265.792 186.933C265.89 187.25 265.899 187.565 265.821 187.878C264.742 187.985 264.198 188.129 264.188 188.31C264.144 189.228 264.122 190.583 264.122 192.375C264.122 194.226 264.154 195.756 264.217 196.967C264.227 197.148 264.771 197.292 265.851 197.399C265.929 197.712 265.919 198.027 265.821 198.344C264.239 198.305 263.319 198.286 263.06 198.286C262.669 198.286 261.576 198.305 259.779 198.344C259.657 198.002 259.657 197.688 259.779 197.399C260.838 197.292 261.373 197.153 261.383 196.982C261.432 195.839 261.456 194.484 261.456 192.917C261.456 191.696 261.451 190.8 261.441 190.229L258.482 198.117H257.992L254.798 190.068V192.917C254.798 194.045 254.823 195.368 254.872 196.887C254.881 197.15 255.416 197.326 256.476 197.414C256.598 197.707 256.598 198.022 256.476 198.359C255.016 198.3 253.5 198.3 251.927 198.359C251.81 198.022 251.81 197.707 251.927 197.414C252.938 197.316 253.448 197.141 253.458 196.887Z" fill="#D9A404"/>
<path fill-rule="evenodd" clip-rule="evenodd" d="M234.204 39.8759C242.73 48.3728 248 60.0745 248 72.9951C248 98.9553 226.733 120 200.5 120C174.267 120 153 98.9553 153 72.9951C153 60.0748 158.269 48.3728 166.795 39.8759C163.683 45.4879 161.906 51.9559 161.906 58.8427C161.906 80.3367 179.185 97.7606 200.5 97.7607C221.815 97.7607 239.094 80.3368 239.094 58.8427C239.094 51.9556 237.316 45.4881 234.204 39.8759Z" fill="#D9A404"/>
<ellipse cx="200.005" cy="40.1413" rx="13.3594" ry="13.1413" fill="#D9A404"/>
</svg>
